0
SECTION
2
HEADER
9
$INSUNITS
70
4
9
$ACADVER
1
AC1014
9
$HANDSEED
5
FFFF
0
ENDSEC
0
SECTION
2
TABLES
0
TABLE
2
VPORT
5
8
100
AcDbSymbolTable
0
ENDTAB
0
TABLE
2
LTYPE
5
5
100
AcDbSymbolTable
0
LTYPE
5
14
100
AcDbSymbolTableRecord
100
AcDbLinetypeTableRecord
2
BYBLOCK
70
0
0
LTYPE
5
15
100
AcDbSymbolTableRecord
100
AcDbLinetypeTableRecord
2
BYLAYER
70
0
0
ENDTAB
0
TABLE
2
LAYER
5
2
100
AcDbSymbolTable
70
2
0
LAYER
5
50
100
AcDbSymbolTableRecord
100
AcDbLayerTableRecord
2
0
70
0
6
CONTINUOUS
0
ENDTAB
0
TABLE
2
STYLE
5
3
100
AcDbSymbolTable
70
1
0
STYLE
5
11
100
AcDbSymbolTableRecord
100
AcDbTextStyleTableRecord
2
STANDARD
70
0
0
ENDTAB
0
TABLE
2
VIEW
5
6
100
AcDbSymbolTable
70
0
0
ENDTAB
0
TABLE
2
UCS
5
7
100
AcDbSymbolTable
70
0
0
ENDTAB
0
TABLE
2
APPID
5
9
100
AcDbSymbolTable
70
2
0
APPID
5
12
100
AcDbSymbolTableRecord
100
AcDbRegAppTableRecord
2
ACAD
70
0
0
ENDTAB
0
TABLE
2
DIMSTYLE
5
A
100
AcDbSymbolTable
70
1
0
ENDTAB
0
TABLE
2
BLOCK_RECORD
5
1
100
AcDbSymbolTable
70
1
0
BLOCK_RECORD
5
1F
100
AcDbSymbolTableRecord
100
AcDbBlockTableRecord
2
*MODEL_SPACE
0
BLOCK_RECORD
5
1B
100
AcDbSymbolTableRecord
100
AcDbBlockTableRecord
2
*PAPER_SPACE
0
ENDTAB
0
ENDSEC
0
SECTION
2
BLOCKS
0
BLOCK
5
20
100
AcDbEntity
100
AcDbBlockBegin
2
*MODEL_SPACE
0
ENDBLK
5
21
100
AcDbEntity
100
AcDbBlockEnd
0
BLOCK
5
1C
100
AcDbEntity
100
AcDbBlockBegin
2
*PAPER_SPACE
0
ENDBLK
5
1D
100
AcDbEntity
100
AcDbBlockEnd
0
ENDSEC
0
SECTION
2
ENTITIES
0
CIRCLE
5
100
100
AcDbEntity
8
0
100
AcDbCircle
10
-10
20
-10
30
0
40
2.0999999999999996
210
0
220
-0
230
1
0
CIRCLE
5
101
100
AcDbEntity
8
0
100
AcDbCircle
10
10
20
-10
30
0
40
2.0999999999999996
210
0
220
-0
230
1
0
CIRCLE
5
102
100
AcDbEntity
8
0
100
AcDbCircle
10
-10
20
10
30
0
40
2.0999999999999996
210
0
220
-0
230
1
0
CIRCLE
5
103
100
AcDbEntity
8
0
100
AcDbCircle
10
10
20
10
30
0
40
2.0999999999999996
210
0
220
-0
230
1
0
LWPOLYLINE
5
104
100
AcDbEntity
8
0
100
AcDbPolyline
90
7
70
1
43
0.0
10
73.000000000000028
20
56.999999999999993
10
73.000000000000028
20
83
10
15.499999999999998
20
83
10
8.5
20
76.000000000000014
10
8.5
20
30
10
15.090622346728626
20
25.358749050408136
10
56.000000000000028
20
40
0
LWPOLYLINE
5
105
100
AcDbEntity
8
0
100
AcDbPolyline
90
24
70
1
43
0.0
10
-73.000000000000028
20
100.00000000000001
10
73.000000000000028
20
100.00000000000001
10
80.000000000000028
20
107.00000000000001
10
107.00000000000003
20
107.00000000000001
10
107.00000000000003
20
99
10
100.00000000000003
20
92.000000000000014
10
90.000000000000028
20
92.000000000000014
10
90.000000000000028
20
-92.000000000000014
10
100.00000000000003
20
-92.000000000000014
10
107.00000000000003
20
-99
10
107.00000000000003
20
-107.00000000000001
10
80.000000000000028
20
-107.00000000000001
10
73.000000000000028
20
-100.00000000000001
10
-73.000000000000028
20
-100.00000000000001
10
-80.000000000000028
20
-107.00000000000001
10
-107.00000000000003
20
-107.00000000000001
10
-107.00000000000003
20
-99
10
-100.00000000000003
20
-92.000000000000014
10
-90.000000000000028
20
-92.000000000000014
10
-90.000000000000028
20
92.000000000000014
10
-100.00000000000003
20
92.000000000000014
10
-107.00000000000003
20
99
10
-107.00000000000003
20
107.00000000000001
10
-80.000000000000028
20
107.00000000000001
0
LWPOLYLINE
5
106
100
AcDbEntity
8
0
100
AcDbPolyline
90
7
70
1
43
0.0
10
8.5
20
-30
10
8.5
20
-76.000000000000028
10
15.499999999999998
20
-83
10
73.000000000000028
20
-83
10
73.000000000000028
20
-57
10
56.000000000000028
20
-40
10
15.090622346728624
20
-25.358749050408136
0
LWPOLYLINE
5
107
100
AcDbEntity
8
0
100
AcDbPolyline
90
7
70
1
43
0.0
10
-8.4999999999999964
20
-76.000000000000014
10
-8.4999999999999964
20
-30
10
-15.090622346728626
20
-25.358749050408136
10
-56.000000000000028
20
-40
10
-73.000000000000028
20
-56.999999999999993
10
-73.000000000000028
20
-83
10
-15.499999999999998
20
-83
0
LWPOLYLINE
5
108
100
AcDbEntity
8
0
100
AcDbPolyline
90
7
70
1
43
0.0
10
-15.499999999999998
20
83
10
-73.000000000000028
20
83
10
-73.000000000000028
20
57
10
-56.000000000000028
20
40
10
-15.090622346728619
20
25.358749050408136
10
-8.4999999999999964
20
30
10
-8.4999999999999964
20
76.000000000000028
0
CIRCLE
5
109
100
AcDbEntity
8
0
100
AcDbCircle
10
-104.50000000000001
20
-104.50000000000001
30
0
40
1.6499999999999915
210
0
220
-0
230
1
0
CIRCLE
5
110
100
AcDbEntity
8
0
100
AcDbCircle
10
-104.50000000000001
20
104.50000000000001
30
0
40
1.6499999999999915
210
0
220
-0
230
1
0
CIRCLE
5
111
100
AcDbEntity
8
0
100
AcDbCircle
10
104.50000000000001
20
104.50000000000001
30
0
40
1.6499999999999915
210
0
220
-0
230
1
0
CIRCLE
5
112
100
AcDbEntity
8
0
100
AcDbCircle
10
-64.999999999999986
20
-14.999999999999996
30
0
40
2.0999999999999996
210
0
220
-0
230
1
0
CIRCLE
5
113
100
AcDbEntity
8
0
100
AcDbCircle
10
-64.999999999999986
20
-29.999999999999996
30
0
40
2.0999999999999996
210
0
220
-0
230
1
0
CIRCLE
5
114
100
AcDbEntity
8
0
100
AcDbCircle
10
65
20
-29.999999999999996
30
0
40
2.0999999999999996
210
0
220
-0
230
1
0
CIRCLE
5
115
100
AcDbEntity
8
0
100
AcDbCircle
10
65.000000000000014
20
-15
30
0
40
2.0999999999999996
210
0
220
-0
230
1
0
CIRCLE
5
116
100
AcDbEntity
8
0
100
AcDbCircle
10
65.000000000000014
20
15
30
0
40
2.0999999999999996
210
0
220
-0
230
1
0
CIRCLE
5
117
100
AcDbEntity
8
0
100
AcDbCircle
10
-64.999999999999986
20
15
30
0
40
2.0999999999999996
210
0
220
-0
230
1
0
CIRCLE
5
118
100
AcDbEntity
8
0
100
AcDbCircle
10
84.999999999987182
20
-15.000000000001883
30
0
40
2.0999999999999908
210
0
220
-0
230
1
0
CIRCLE
5
119
100
AcDbEntity
8
0
100
AcDbCircle
10
84.999999999987153
20
14.999999999998117
30
0
40
2.1000000000000085
210
0
220
-0
230
1
0
CIRCLE
5
120
100
AcDbEntity
8
0
100
AcDbCircle
10
65
20
30.000000000000004
30
0
40
2.0999999999999996
210
0
220
-0
230
1
0
CIRCLE
5
121
100
AcDbEntity
8
0
100
AcDbCircle
10
-65
20
30
30
0
40
2.0999999999999996
210
0
220
-0
230
1
0
CIRCLE
5
122
100
AcDbEntity
8
0
100
AcDbCircle
10
-85.000000000012847
20
14.999999999998117
30
0
40
2.1000000000000085
210
0
220
-0
230
1
0
CIRCLE
5
123
100
AcDbEntity
8
0
100
AcDbCircle
10
-85.000000000012818
20
-15.000000000001883
30
0
40
2.0999999999999908
210
0
220
-0
230
1
0
CIRCLE
5
124
100
AcDbEntity
8
0
100
AcDbCircle
10
-85.000000000000014
20
-30
30
0
40
2.1000000000000085
210
0
220
-0
230
1
0
CIRCLE
5
125
100
AcDbEntity
8
0
100
AcDbCircle
10
-85.000000000000014
20
30
30
0
40
2.0999999999999908
210
0
220
-0
230
1
0
CIRCLE
5
126
100
AcDbEntity
8
0
100
AcDbCircle
10
84.999999999999986
20
30
30
0
40
2.1000000000000085
210
0
220
-0
230
1
0
CIRCLE
5
127
100
AcDbEntity
8
0
100
AcDbCircle
10
84.999999999999986
20
-30
30
0
40
2.0999999999999908
210
0
220
-0
230
1
0
CIRCLE
5
128
100
AcDbEntity
8
0
100
AcDbCircle
10
104.50000000000001
20
-104.50000000000001
30
0
40
1.6499999999999915
210
0
220
-0
230
1
0
ENDSEC
0
SECTION
2
OBJECTS
0
DICTIONARY
5
C
100
AcDbDictionary
3
ACAD_GROUP
350
D
3
ACAD_MLINESTYLE
350
17
0
DICTIONARY
5
D
100
AcDbDictionary
0
DICTIONARY
5
1A
330
C
100
AcDbDictionary
0
DICTIONARY
5
17
100
AcDbDictionary
0
ENDSEC
0
EOF
